<svg id="Group_5" data-name="Group 5" xmlns="http://www.w3.org/2000/svg" width="48" height="48" viewBox="0 0 64 64">
  <g id="Slice_4" data-name="Slice 4">
    <path id="a" d="M32,0h0A31.947,31.947,0,0,1,64,32h0A31.947,31.947,0,0,1,32,64h0A31.947,31.947,0,0,1,0,32H0A31.947,31.947,0,0,1,32,0Z" fill="#c5c5c5"/>
    <path id="Path" d="M17.885,13.257C13.771,8.686,11.485,0,11.485,0S9.2,8.686,5.085,13.257-1.658,22.971,1.2,28.571a12.009,12.009,0,0,0,10.171,6.514,12.283,12.283,0,0,0,10.286-6.514C24.628,22.971,21.885,17.829,17.885,13.257Z" transform="translate(20.515 13.714)" fill="#565656"/>
  </g>
</svg>
