<svg id="Group_38" data-name="Group 38" xmlns="http://www.w3.org/2000/svg" width="184" height="60" viewBox="0 0 184 60">
  <g id="Slice_38" data-name="Slice 38">
    <path id="Fill_34" data-name="Fill 34" d="M184,51.891A8.121,8.121,0,0,1,175.868,60H8.134A8.122,8.122,0,0,1,0,51.891V8.108A8.122,8.122,0,0,1,8.134,0H175.868A8.12,8.12,0,0,1,184,8.108Z" fill="#fff"/>
    <path id="Fill_45" data-name="Fill 45" d="M2.536,9.836A21.363,21.363,0,0,1,0,9.721V.2A22.639,22.639,0,0,1,2.966,0,6.612,6.612,0,0,1,7.322,1.193,4.257,4.257,0,0,1,8.852,4.681,4.892,4.892,0,0,1,7.305,8.443,7.147,7.147,0,0,1,2.536,9.836ZM3.03.991A8.683,8.683,0,0,0,1.4,1.12V8.773a9.981,9.981,0,0,0,1.4.058H2.85A4.837,4.837,0,0,0,6.22,7.753,3.917,3.917,0,0,0,7.385,4.724a3.514,3.514,0,0,0-.936-2.606A4.652,4.652,0,0,0,3.03.991Z" transform="translate(56.279 9.984)" fill="#1a1c20"/>
    <path id="Fill_46" data-name="Fill 46" d="M3.877,6.885H3.86C1.587,6.885,0,5.492,0,3.5A3.233,3.233,0,0,1,1.167.922,4.413,4.413,0,0,1,3.992,0,4.185,4.185,0,0,1,6.8.937,3.136,3.136,0,0,1,7.869,3.375,3.211,3.211,0,0,1,6.59,6.048,4.521,4.521,0,0,1,3.877,6.885ZM3.943.9A2.378,2.378,0,0,0,1.48,3.456,2.392,2.392,0,0,0,3.892,5.987H3.91A2.429,2.429,0,0,0,6.356,3.415,2.367,2.367,0,0,0,3.943.9Z" transform="translate(67.098 12.934)" fill="#1a1c20"/>
    <path id="Fill_47" data-name="Fill 47" d="M1.385,0l1,3.486c.2.768.4,1.493.538,2.205H2.97c.169-.7.416-1.437.662-2.191L4.848,0H5.987L7.142,3.442c.277.811.492,1.551.661,2.248h.046a19.471,19.471,0,0,1,.569-2.234L9.48,0H10.82l-2.4,6.885H7.187L6.049,3.6a23.119,23.119,0,0,1-.663-2.276h-.03a19.38,19.38,0,0,1-.677,2.291l-1.2,3.272H2.247L0,0Z" transform="translate(74.967 12.934)" fill="#1a1c20"/>
    <path id="Fill_48" data-name="Fill 48" d="M.067,1.975C.067,1.266.05.71,0,.153H1.291l.082,1.1h.033A3.1,3.1,0,0,1,4.055,0a2.656,2.656,0,0,1,2.83,2.865v4.02H5.43V3c0-1.085-.481-2-1.854-2A2.077,2.077,0,0,0,1.623,2.253a1.552,1.552,0,0,0-.1.571V6.885H.067Z" transform="translate(87.754 12.934)" fill="#1a1c20"/>
    <path id="Fill_49" data-name="Fill 49" d="M0,9.836H.984V0H0Z" transform="translate(96.607 9.984)" fill="#1a1c20"/>
    <path id="Fill_50" data-name="Fill 50" d="M3.876,6.885H3.86C1.587,6.885,0,5.492,0,3.5A3.233,3.233,0,0,1,1.166.922,4.413,4.413,0,0,1,3.992,0,4.185,4.185,0,0,1,6.8.937,3.136,3.136,0,0,1,7.869,3.375,3.211,3.211,0,0,1,6.59,6.048,4.523,4.523,0,0,1,3.876,6.885ZM3.943.9A2.378,2.378,0,0,0,1.48,3.456,2.392,2.392,0,0,0,3.892,5.987h.016A2.429,2.429,0,0,0,6.355,3.415,2.367,2.367,0,0,0,3.943.9Z" transform="translate(99.557 12.934)" fill="#1a1c20"/>
    <path id="Fill_51" data-name="Fill 51" d="M2.263,6.885A2,2,0,0,1,0,4.993C0,3.414,1.557,2.544,4.383,2.544h.065V2.408c0-.7-.286-1.524-1.651-1.524h-.03a3.871,3.871,0,0,0-1.942.49L.519.571A5.272,5.272,0,0,1,2.966,0,2.8,2.8,0,0,1,5.235.852a2.811,2.811,0,0,1,.56,1.842V5.157A9.927,9.927,0,0,0,5.9,6.736H4.694l-.122-.83H4.526A2.852,2.852,0,0,1,2.263,6.885Zm2-3.512a5.556,5.556,0,0,0-1.985.287,1.258,1.258,0,0,0-.928,1.2A1.122,1.122,0,0,0,2.6,6,1.862,1.862,0,0,0,4.418,4.9a1.072,1.072,0,0,0,.062-.382V3.375Z" transform="translate(108.41 12.934)" fill="#1a1c20"/>
    <path id="Fill_52" data-name="Fill 52" d="M3.134,10.82C1.318,10.82,0,9.267,0,7.128A4.143,4.143,0,0,1,1.089,4.137a3.054,3.054,0,0,1,2.18-.911,2.429,2.429,0,0,1,2.2,1.1H5.5V0H6.825V8.779c0,.762.022,1.445.06,1.876H5.7l-.059-1.26H5.605A2.675,2.675,0,0,1,3.134,10.82Zm.392-6.558c-1.307,0-2.185,1.122-2.185,2.792,0,1.64.846,2.7,2.155,2.7A2,2,0,0,0,5.439,8.178a2.241,2.241,0,0,0,.06-.57V6.348a2.443,2.443,0,0,0-.06-.571A1.96,1.96,0,0,0,3.526,4.261Z" transform="translate(116.279 9)" fill="#1a1c20"/>
    <path id="Fill_53" data-name="Fill 53" d="M3.877,6.885H3.859C1.587,6.885,0,5.492,0,3.5A3.232,3.232,0,0,1,1.167.922,4.413,4.413,0,0,1,3.992,0,4.185,4.185,0,0,1,6.8.937,3.136,3.136,0,0,1,7.869,3.375,3.211,3.211,0,0,1,6.59,6.048,4.521,4.521,0,0,1,3.877,6.885ZM3.944.9A2.378,2.378,0,0,0,1.481,3.456,2.392,2.392,0,0,0,3.892,5.987H3.91A2.429,2.429,0,0,0,6.355,3.415,2.367,2.367,0,0,0,3.944.9Z" transform="translate(129.066 12.934)" fill="#1a1c20"/>
    <path id="Fill_54" data-name="Fill 54" d="M.067,1.975C.067,1.266.05.71,0,.153H1.291l.083,1.1h.033A3.1,3.1,0,0,1,4.055,0a2.656,2.656,0,0,1,2.83,2.865v4.02H5.429V3c0-1.085-.479-2-1.854-2A2.079,2.079,0,0,0,1.622,2.253a1.559,1.559,0,0,0-.1.571V6.885H.067Z" transform="translate(137.918 12.934)" fill="#1a1c20"/>
    <path id="Fill_55" data-name="Fill 55" d="M2.759,0V1.68H4.918v.971H2.759V6.433c0,.869.292,1.362,1.132,1.362a3.3,3.3,0,0,0,.874-.087l.068.971A4.785,4.785,0,0,1,3.5,8.852a2.374,2.374,0,0,1-1.629-.536,2.444,2.444,0,0,1-.582-1.841V2.651H0V1.68H1.285V.391Z" transform="translate(149.721 10.967)" fill="#1a1c20"/>
    <path id="Fill_56" data-name="Fill 56" d="M0,0H1.47V4.184H1.5a2.445,2.445,0,0,1,1.053-.859,3.32,3.32,0,0,1,1.5-.346A2.661,2.661,0,0,1,6.885,5.846v3.99H5.415V5.985a1.746,1.746,0,0,0-1.872-2A2.118,2.118,0,0,0,1.571,5.209a1.244,1.244,0,0,0-.1.582V9.836H0Z" transform="translate(155.623 9.984)" fill="#1a1c20"/>
    <path id="Fill_57" data-name="Fill 57" d="M3.839,6.885C1.507,6.885,0,5.582,0,3.565A3.465,3.465,0,0,1,3.677,0a3.05,3.05,0,0,1,2.56,1.1A3.373,3.373,0,0,1,6.885,3.1a2.588,2.588,0,0,1-.048.572L1.371,3.66C1.4,5.091,2.394,5.946,4.031,5.946A6.217,6.217,0,0,0,6.193,5.62l.258.843A7.36,7.36,0,0,1,3.839,6.885ZM3.564.857A2.134,2.134,0,0,0,1.387,2.8H5.515a2,2,0,0,0-.521-1.422A1.919,1.919,0,0,0,3.564.857Z" transform="translate(164.475 12.934)" fill="#1a1c20"/>
    <path id="Desktop" d="M92.26,25.928V5.908h2.772V7.644a5.142,5.142,0,0,1,4.48-2.128,6.1,6.1,0,0,1,5.012,2.268,8.394,8.394,0,0,1,1.679,5.431,8.352,8.352,0,0,1-1.652,5.292,5.883,5.883,0,0,1-4.9,2.268,5.218,5.218,0,0,1-4.424-2.52v7.673ZM76.916,18.564a7.7,7.7,0,0,1-1.931-5.4A7.731,7.731,0,0,1,76.944,7.7a7.435,7.435,0,0,1,10.528,0,7.858,7.858,0,0,1,1.96,5.459,7.7,7.7,0,0,1-1.932,5.4,7.438,7.438,0,0,1-10.584,0ZM34.748,15.708H37.66A3.241,3.241,0,0,0,38.7,17.78a4.121,4.121,0,0,0,2.408.56c2.3,0,3.472-.672,3.472-1.96a1.864,1.864,0,0,0-1.288-1.652,16.053,16.053,0,0,0-2.912-.84,11.761,11.761,0,0,1-3.584-1.26,3.28,3.28,0,0,1-1.68-2.911,3.491,3.491,0,0,1,1.625-3.081,7.344,7.344,0,0,1,4.256-1.12c3.752,0,5.824,1.512,6.16,4.564H44.268a2.7,2.7,0,0,0-1.036-1.624,4.229,4.229,0,0,0-2.3-.5,3.9,3.9,0,0,0-2.016.392,1.375,1.375,0,0,0-.784,1.288c0,.5.392.924,1.176,1.288a21.172,21.172,0,0,0,2.912.868,12.293,12.293,0,0,1,3.668,1.372,3.418,3.418,0,0,1,1.736,3.024c0,3.052-2.156,4.592-6.44,4.592C37.212,20.776,35.084,19.068,34.748,15.708ZM20.972,18.788a7.812,7.812,0,0,1-2.016-5.656,7.824,7.824,0,0,1,1.9-5.4,6.247,6.247,0,0,1,5.068-2.212,6.369,6.369,0,0,1,5.4,2.408,9.887,9.887,0,0,1,1.736,6.048H22.092A5.424,5.424,0,0,0,23.24,17.22a3.605,3.605,0,0,0,2.772,1.121,4.137,4.137,0,0,0,2.52-.728,5.028,5.028,0,0,0,1.316-1.877h2.968a6.529,6.529,0,0,1-1.988,3.388,7.057,7.057,0,0,1-4.788,1.652A6.642,6.642,0,0,1,20.972,18.788Zm49.448,1.6A3.452,3.452,0,0,1,67.7,19.4a3.751,3.751,0,0,1-.813-2.632v-8.4H64.2V5.908h2.687V2.464L69.86,1.232V5.908h3.3V8.372h-3.3v8.4a1.288,1.288,0,0,0,.252.868,1.06,1.06,0,0,0,.784.28h1.9v2.464Zm-10.444,0-5.208-6.608-1.652,1.54v5.068H50.148V0h2.968V11.872l6.272-5.964h3.836l-6.413,5.964,6.972,8.512ZM0,20.384V.392H7.28c3.22,0,5.656.9,7.336,2.715,1.568,1.68,2.352,4.117,2.352,7.28,0,3.137-.812,5.572-2.408,7.308-1.68,1.792-4.117,2.688-7.336,2.688Z" transform="translate(56 24)" fill="#1a1c20"/>
    <path id="Fill_3" data-name="Fill 3" d="M24.686,30.857H11.314a1.1,1.1,0,0,1,1.143-.913h1.327c.295-.115.413-.2.409-.309,0,0,0-.026,0-.143,0-.081,0-.139,0-.142l.272-3.637,7.054.015.272,3.622s0,.071.005.158,0,.126,0,.127c0,.1.113.194.408.309h1.327a1.1,1.1,0,0,1,1.143.912ZM34.775,25.2H1.224A1.225,1.225,0,0,1,0,23.977V1.222A1.224,1.224,0,0,1,1.224,0H34.775A1.225,1.225,0,0,1,36,1.222V23.977A1.225,1.225,0,0,1,34.775,25.2Z" transform="translate(14 15)" fill="#1a1c20"/>
  </g>
</svg>
