<svg id="Group_23" data-name="Group 23" xmlns="http://www.w3.org/2000/svg" width="24" height="24" viewBox="0 0 24 24">
  <g id="Slice_23" data-name="Slice 23">
    <path id="Shape" d="M24,24H14.4V12.1a12.355,12.355,0,0,1,2.6-8A12.917,12.917,0,0,1,24,0V5.3a8.783,8.783,0,0,0-2.193,1l-.007,0a3.718,3.718,0,0,0-1.3,1.5,6.6,6.6,0,0,0-.6,2,17.656,17.656,0,0,0-.1,2.4v1.3H24V24ZM9.6,24H0V12.1a12.355,12.355,0,0,1,2.6-8A12.917,12.917,0,0,1,9.6,0V5.3a8.783,8.783,0,0,0-2.193,1L7.4,6.3A3.718,3.718,0,0,0,6.1,7.8a5.257,5.257,0,0,0-.6,1.9,16.659,16.659,0,0,0-.2,2.4v1.3H9.6V24Z" fill="#f2e205"/>
  </g>
</svg>
