<svg id="Group_36" data-name="Group 36" xmlns="http://www.w3.org/2000/svg" xmlns:xlink="http://www.w3.org/1999/xlink" width="183.813" height="59.754" viewBox="0 0 183.813 59.754">
  <defs>
    <clipPath id="clip-path">
      <path id="Clip_2" data-name="Clip 2" d="M0,0H183.813V59.754H0Z" transform="translate(0 0)" fill="none"/>
    </clipPath>
  </defs>
  <g id="Slice_36" data-name="Slice 36">
    <path id="Clip_2-2" data-name="Clip 2" d="M0,0H183.813V59.754H0Z" transform="translate(0 0)" fill="none"/>
    <g id="Slice_36-2" data-name="Slice 36" clip-path="url(#clip-path)">
      <path id="Fill_1" data-name="Fill 1" d="M183.813,51.679a8.1,8.1,0,0,1-8.124,8.075H8.125A8.1,8.1,0,0,1,0,51.679V8.075A8.1,8.1,0,0,1,8.125,0H175.689a8.1,8.1,0,0,1,8.124,8.075Z" transform="translate(0 0)" fill="#fefefe"/>
      <path id="Fill_4" data-name="Fill 4" d="M26.047,14.169,17.759,9.413,1.772.24C.884-.269,0,.039,0,1.1V38.478c0,.8.632,1.142,1.4.7l16.356-9.385,8.288-4.755,7.967-4.571c.935-.537.845-1.273.056-1.695s-8.023-4.6-8.023-4.6" transform="translate(14 12)" fill="#191c20"/>
      <path id="Fill_20" data-name="Fill 20" d="M1.793,17.554H0V.218H1.458l.248,1.638h.086A4.2,4.2,0,0,1,3.4.437,4.877,4.877,0,0,1,5.51,0,4.375,4.375,0,0,1,9.146,1.626a7.249,7.249,0,0,1,1.28,4.563,7.211,7.211,0,0,1-1.3,4.58A4.385,4.385,0,0,1,5.51,12.4,5.106,5.106,0,0,1,3.4,11.97a4,4,0,0,1-1.6-1.327h-.13a16.321,16.321,0,0,1,.13,1.987v4.922ZM5.25,1.539A3.173,3.173,0,0,0,2.625,2.554a5.286,5.286,0,0,0-.833,3.232v.4A6.058,6.058,0,0,0,2.625,9.8a3.159,3.159,0,0,0,2.668,1.086A2.781,2.781,0,0,0,7.7,9.628a6.027,6.027,0,0,0,.868-3.461A5.8,5.8,0,0,0,7.7,2.734,2.866,2.866,0,0,0,5.25,1.539Z" transform="translate(137.543 27.422)" fill="#191c20"/>
      <path id="Fill_22" data-name="Fill 22" d="M0,16.986H1.793V0H0Z" transform="translate(150.328 22.619)" fill="#191c20"/>
      <path id="Fill_24" data-name="Fill 24" d="M3.76,12.379A3.951,3.951,0,0,1,1,11.462,3.38,3.38,0,0,1,0,8.853,3.119,3.119,0,0,1,1.434,6.092a8.383,8.383,0,0,1,4.3-1.037l2.01-.066V4.247a3.065,3.065,0,0,0-.6-2.08A2.459,2.459,0,0,0,5.23,1.5a7.785,7.785,0,0,0-3.35.916L1.328,1.026A8.494,8.494,0,0,1,3.247.273,8.263,8.263,0,0,1,5.337,0,4.5,4.5,0,0,1,8.476.95,4.009,4.009,0,0,1,9.5,4v8.166H8.168l-.357-1.7H7.725a5.011,5.011,0,0,1-1.767,1.523A5.36,5.36,0,0,1,3.76,12.379ZM7.7,6.277l-1.795.076a6.494,6.494,0,0,0-3.084.672A2.036,2.036,0,0,0,1.88,8.875a1.883,1.883,0,0,0,.589,1.5,2.441,2.441,0,0,0,1.648.513,3.637,3.637,0,0,0,2.631-.927,3.469,3.469,0,0,0,.957-2.6Z" transform="translate(154.264 27.444)" fill="#191c20"/>
      <path id="Fill_25" data-name="Fill 25" d="M0,0H1.923L4.516,6.823A26.286,26.286,0,0,1,5.575,10.2h.086q.141-.558.589-1.906T9.183,0h1.924L6.018,13.624A6.8,6.8,0,0,1,4.251,16.49a3.733,3.733,0,0,1-2.479.845A7.165,7.165,0,0,1,.151,17.15V15.7a6.2,6.2,0,0,0,1.329.131,2.745,2.745,0,0,0,2.636-2.1l.659-1.7Z" transform="translate(164.802 27.64)" fill="#191c20"/>
      <path id="Fill_26" data-name="Fill 26" d="M5.325,19.069C1.647,19.069,0,17.272,0,15.49a3.6,3.6,0,0,1,1.907-3.053A10.482,10.482,0,0,1,6.567,11.29l.071,0-.044-.056a2.525,2.525,0,0,1-.7-1.644A2.089,2.089,0,0,1,6.1,8.7l.038-.092c-.266.025-.541.05-.794.05A3.933,3.933,0,0,1,1.238,4.73,4.536,4.536,0,0,1,2.822,1.377,6.713,6.713,0,0,1,7.258,0h5.1L10.773.9H9.239l0,0A4.228,4.228,0,0,1,11,4.28,4.24,4.24,0,0,1,8.915,7.833l-.037.037a1.708,1.708,0,0,0-.657,1.19,1.37,1.37,0,0,0,.636,1.068l.009.008.892.7c1.07.909,2.08,1.767,2.08,3.5C11.839,16.69,9.6,19.069,5.325,19.069ZM6.91,11.986a9.89,9.89,0,0,0-2.6.4,2.789,2.789,0,0,0-2.13,2.578,2.628,2.628,0,0,0,1.186,2.192,5.446,5.446,0,0,0,3.174.861,4.359,4.359,0,0,0,2.711-.771,2.379,2.379,0,0,0,.929-1.934c0-1.306-.877-1.993-2.7-3.3A3.807,3.807,0,0,0,6.91,11.986ZM5.7.826a2.318,2.318,0,0,0-1.734.826A2.859,2.859,0,0,0,3.416,3.5c0,1.553.908,4.453,3.1,4.453a2.528,2.528,0,0,0,1.685-.7A2.582,2.582,0,0,0,8.816,5.43C8.816,3.548,7.7.826,5.7.826Z" transform="translate(100.59 27.851)" fill="#191c20"/>
      <path id="Fill_27" data-name="Fill 27" d="M6.034,11.967a5.843,5.843,0,0,1-4.491-1.9A6.032,6.032,0,0,1,0,6.071,5.923,5.923,0,0,1,1.793,1.808,6.525,6.525,0,0,1,6.406,0a5.819,5.819,0,0,1,4.317,1.814A6.038,6.038,0,0,1,12.315,5.9a6.073,6.073,0,0,1-6.281,6.071ZM5.762.774a3.405,3.405,0,0,0-2.225.85A3.806,3.806,0,0,0,2.4,4.674a9.858,9.858,0,0,0,.98,4.2A3.741,3.741,0,0,0,6.6,11.217,3.127,3.127,0,0,0,9.124,9.944a4.47,4.47,0,0,0,.743-2.775,9.836,9.836,0,0,0-.9-4.022A3.667,3.667,0,0,0,5.762.774Z" transform="translate(88.202 27.496)" fill="#191c20"/>
      <path id="Fill_28" data-name="Fill 28" d="M6.034,11.967a5.843,5.843,0,0,1-4.491-1.9A6.032,6.032,0,0,1,0,6.071,5.923,5.923,0,0,1,1.793,1.808,6.524,6.524,0,0,1,6.405,0a5.82,5.82,0,0,1,4.318,1.814A6.038,6.038,0,0,1,12.315,5.9a6.072,6.072,0,0,1-6.281,6.071ZM5.762.774a3.405,3.405,0,0,0-2.225.85A3.807,3.807,0,0,0,2.4,4.674a9.858,9.858,0,0,0,.98,4.2A3.742,3.742,0,0,0,6.6,11.217,3.128,3.128,0,0,0,9.125,9.944a4.47,4.47,0,0,0,.743-2.775,9.833,9.833,0,0,0-.9-4.022A3.668,3.668,0,0,0,5.762.774Z" transform="translate(74.798 27.496)" fill="#191c20"/>
      <path id="Fill_29" data-name="Fill 29" d="M17.129,17.231l-3.556.829a26.047,26.047,0,0,1-4.1.426C2.61,18.486,0,13.387,0,9.393,0,4.521,3.7,0,10.045,0a14.176,14.176,0,0,1,3.8.528,9.655,9.655,0,0,1,3.282,1.557L15.065,4.069l-.87.2.622-1.005A7.077,7.077,0,0,0,9.5.9C5.569.9,2.61,3.919,2.61,8.315c0,4.721,3.381,9.167,8.8,9.167a7.339,7.339,0,0,0,3.158-.629V12.81l-3.754.2L12.8,11.93h5.271l-.646.627a.587.587,0,0,0-.249.4c-.026.227-.049.956-.049,1.207Z" transform="translate(56 22)" fill="#191c20"/>
      <path id="Fill_30" data-name="Fill 30" d="M5.281,17.067c-.821-.076-.993-.225-.993-1.207V1.644c.005-.054.009-.109.013-.162C4.4.6,4.65.453,5.422,0H1.865L0,.9H1.9v15.51c0,.5-.1.577-.671,1.33h4.4l.92-.552c-.422-.051-.845-.076-1.269-.126" transform="translate(112.405 21.281)" fill="#191c20"/>
      <path id="Fill_31" data-name="Fill 31" d="M5.8,12a5.218,5.218,0,0,1-3.283-.974A6.532,6.532,0,0,1,0,5.761a5.537,5.537,0,0,1,1.873-4.33A5.831,5.831,0,0,1,5.654,0,4.765,4.765,0,0,1,8.2.7,4.133,4.133,0,0,1,9.924,3.166l-5.8,2.372-1.9.149A6.827,6.827,0,0,0,4.116,9.382,4.575,4.575,0,0,0,7.308,10.7a6.323,6.323,0,0,0,3.012-.872L9.011,11.075c-.086.048-.172.1-.258.149-.182.106-.37.216-.554.3A5.646,5.646,0,0,1,5.8,12ZM4.962.822c-1.141,0-2.839.924-2.839,3.468,0,.284.022.573.045.878.011.145.022.3.031.445L6.692,3.641c.474-.176.715-.328.715-.673A2.464,2.464,0,0,0,4.962.822Z" transform="translate(118.791 27.504)" fill="#191c20"/>
      <path id="Fill_32" data-name="Fill 32" d="M.737.17V1.816h-.2V.17H0V0H1.276V.17Z" transform="translate(129.448 27.504)" fill="#191c20"/>
      <path id="Fill_33" data-name="Fill 33" d="M1.358,1.816V.155H1.349l-.5,1.662H.692L.186.155H.18V1.816H0V0H.308L.766,1.468H.772L1.223,0h.312V1.816Z" transform="translate(131.049 27.504)" fill="#191c20"/>
      <path id="Fill_34" data-name="Fill 34" d="M1.162,5.079H0c0-.1.3-.918.9-2.5A19.79,19.79,0,0,0,1.8,0H3.262a21.552,21.552,0,0,0,.817,2.545A22.679,22.679,0,0,1,4.9,5.077H3.659A8.4,8.4,0,0,0,3.308,3.62H1.525a7.7,7.7,0,0,0-.363,1.458ZM2.389.7c0,.1-.23.833-.683,2.176h1.4A22.323,22.323,0,0,1,2.452.7Z" transform="translate(55.823 11.871)" fill="#191c20"/>
      <path id="Fill_35" data-name="Fill 35" d="M4.142,5.078H3.189A9.553,9.553,0,0,0,2.127,3.389a9.322,9.322,0,0,1-1.266-2.2H.8A13.889,13.889,0,0,1,.9,2.73q0,.963.054,2.348H0Q.058,3.869.058,2.422.058,1,0,0H1.146A7.358,7.358,0,0,0,2.1,1.65,9.752,9.752,0,0,1,3.266,3.729h.058a14.862,14.862,0,0,1-.093-1.56q0-1.057-.054-2.168h.965q-.054.967-.054,2.422t.054,2.656" transform="translate(61.554 11.871)" fill="#191c20"/>
      <path id="Fill_36" data-name="Fill 36" d="M1.575,5.149C1.2,5.149.689,5.134,0,5.1.033,4.32.05,3.427.05,2.445.05,1.51.033.695,0,.023H.676c.116,0,.287,0,.494-.012S1.526,0,1.6,0A2.6,2.6,0,0,1,3.619.7a2.451,2.451,0,0,1,.628,1.685,2.912,2.912,0,0,1-.7,1.935A2.454,2.454,0,0,1,1.575,5.149ZM1.44.78A3.993,3.993,0,0,0,.985.815c.026.536.039,1.085.039,1.63,0,.625.013,1.247.039,1.849a2.513,2.513,0,0,0,.5.051,1.455,1.455,0,0,0,1.229-.521,2.029,2.029,0,0,0,.4-1.269A1.9,1.9,0,0,0,2.76,1.293,1.636,1.636,0,0,0,1.44.78Z" transform="translate(67.045 11.848)" fill="#191c20"/>
      <path id="Fill_37" data-name="Fill 37" d="M1.073,5.1H0c.033-.781.05-1.675.05-2.657C.05,1.51.033.7,0,.023H.668c.083,0,.255,0,.485-.012S1.617,0,1.834,0C3.009,0,3.605.412,3.605,1.225A1.376,1.376,0,0,1,2.595,2.579v.058a1.215,1.215,0,0,1,.683.614A13.731,13.731,0,0,1,4.068,5.1H2.927a7.751,7.751,0,0,0-.688-1.7.9.9,0,0,0-.772-.324c-.136,0-.276,0-.428,0,0,.646.011,1.327.034,2.024ZM1.633.737A3.4,3.4,0,0,0,.992.792c.029.405.043.936.043,1.576.144,0,.262.007.359.007.815,0,1.228-.29,1.228-.861C2.622,1,2.289.737,1.633.737Z" transform="translate(72.382 11.848)" fill="#191c20"/>
      <path id="Fill_38" data-name="Fill 38" d="M2.393,5.336A2.268,2.268,0,0,1,.687,4.612,2.571,2.571,0,0,1,0,2.773,2.83,2.83,0,0,1,.726.788,2.352,2.352,0,0,1,2.521,0,2.269,2.269,0,0,1,4.227.722a2.571,2.571,0,0,1,.688,1.84,2.827,2.827,0,0,1-.726,1.985A2.354,2.354,0,0,1,2.393,5.336ZM2.417.846a1.178,1.178,0,0,0-.957.511,2.063,2.063,0,0,0-.394,1.291,2.037,2.037,0,0,0,.415,1.32A1.271,1.271,0,0,0,2.5,4.477a1.179,1.179,0,0,0,.958-.513,2.059,2.059,0,0,0,.394-1.289,2.037,2.037,0,0,0-.413-1.322A1.275,1.275,0,0,0,2.417.846Z" transform="translate(77.07 11.754)" fill="#191c20"/>
      <path id="Fill_39" data-name="Fill 39" d="M1.092,5.078H0Q.05,3.869.05,2.422.05,1,0,0H1.092q-.05.983-.05,2.422,0,1.471.05,2.656" transform="translate(83.075 11.871)" fill="#191c20"/>
      <path id="Fill_40" data-name="Fill 40" d="M1.575,5.149C1.2,5.149.689,5.134,0,5.1.033,4.32.05,3.427.05,2.445.05,1.51.033.695,0,.023H.676c.116,0,.287,0,.494-.012S1.526,0,1.6,0A2.6,2.6,0,0,1,3.619.7a2.451,2.451,0,0,1,.628,1.685,2.912,2.912,0,0,1-.7,1.935A2.454,2.454,0,0,1,1.575,5.149ZM1.44.78A3.993,3.993,0,0,0,.985.815c.026.536.039,1.085.039,1.63,0,.625.013,1.247.039,1.849a2.513,2.513,0,0,0,.5.051,1.455,1.455,0,0,0,1.229-.521,2.029,2.029,0,0,0,.4-1.269A1.9,1.9,0,0,0,2.76,1.293,1.636,1.636,0,0,0,1.44.78Z" transform="translate(85.516 11.848)" fill="#191c20"/>
      <path id="Fill_41" data-name="Fill 41" d="M1.162,5.079H0c0-.1.3-.918.9-2.5A19.79,19.79,0,0,0,1.8,0H3.262a21.682,21.682,0,0,0,.816,2.545A22.928,22.928,0,0,1,4.9,5.077H3.659A8.4,8.4,0,0,0,3.308,3.62H1.525a7.6,7.6,0,0,0-.363,1.458ZM2.389.7c0,.1-.23.833-.683,2.176h1.4A22.187,22.187,0,0,1,2.451.7Z" transform="translate(92.291 11.871)" fill="#191c20"/>
      <path id="Fill_42" data-name="Fill 42" d="M1.085,5.1H0c.033-.747.05-1.64.05-2.656C.05,1.52.033.7,0,.023H.672c.091,0,.263,0,.548-.012C1.479,0,1.715,0,1.922,0A2.2,2.2,0,0,1,3.162.335a1.144,1.144,0,0,1,.506,1.019A1.53,1.53,0,0,1,2.982,2.73a3.029,3.029,0,0,1-1.68.445c-.121,0-.208,0-.259-.008,0,.477.014,1.128.043,1.933ZM1.575.734A3.1,3.1,0,0,0,1,.791c.028.5.042,1.063.042,1.67.056,0,.125.007.224.007.935,0,1.408-.3,1.408-.9C2.671,1.014,2.3.734,1.575.734Z" transform="translate(98.021 11.848)" fill="#191c20"/>
      <path id="Fill_43" data-name="Fill 43" d="M1.085,5.1H0c.033-.747.05-1.64.05-2.656C.05,1.52.033.7,0,.023H.672c.091,0,.263,0,.548-.012C1.479,0,1.715,0,1.922,0A2.2,2.2,0,0,1,3.162.335a1.144,1.144,0,0,1,.506,1.019A1.531,1.531,0,0,1,2.983,2.73,3.035,3.035,0,0,1,1.3,3.175c-.121,0-.208,0-.259-.008,0,.477.014,1.128.043,1.933ZM1.575.734A3.1,3.1,0,0,0,1,.791c.028.5.042,1.063.042,1.67.056,0,.125.007.224.007.935,0,1.408-.3,1.408-.9C2.671,1.014,2.3.734,1.575.734Z" transform="translate(102.651 11.848)" fill="#191c20"/>
      <path id="Fill_44" data-name="Fill 44" d="M2.393,5.336A2.268,2.268,0,0,1,.687,4.612,2.574,2.574,0,0,1,0,2.773,2.83,2.83,0,0,1,.726.788,2.352,2.352,0,0,1,2.521,0,2.269,2.269,0,0,1,4.227.722a2.571,2.571,0,0,1,.688,1.84,2.827,2.827,0,0,1-.726,1.985A2.354,2.354,0,0,1,2.393,5.336ZM2.417.846a1.178,1.178,0,0,0-.957.511,2.063,2.063,0,0,0-.394,1.291,2.037,2.037,0,0,0,.415,1.32A1.273,1.273,0,0,0,2.5,4.477a1.179,1.179,0,0,0,.958-.513,2.059,2.059,0,0,0,.394-1.289,2.037,2.037,0,0,0-.413-1.322A1.275,1.275,0,0,0,2.417.846Z" transform="translate(108.975 11.754)" fill="#191c20"/>
      <path id="Fill_45" data-name="Fill 45" d="M4.142,5.078H3.189A9.553,9.553,0,0,0,2.127,3.389a9.322,9.322,0,0,1-1.266-2.2H.8A13.889,13.889,0,0,1,.9,2.73q0,.963.054,2.348H0Q.058,3.869.058,2.422.058,1,0,0H1.146A7.375,7.375,0,0,0,2.1,1.65,9.752,9.752,0,0,1,3.266,3.729h.058a14.862,14.862,0,0,1-.093-1.56q0-1.057-.054-2.168h.965q-.054.967-.054,2.422t.054,2.656" transform="translate(114.98 11.871)" fill="#191c20"/>
    </g>
  </g>
</svg>
