<svg id="Group_37" data-name="Group 37" xmlns="http://www.w3.org/2000/svg" width="184" height="60" viewBox="0 0 184 60">
  <g id="Slice_37" data-name="Slice 37">
    <path id="Fill_34" data-name="Fill 34" d="M184,51.891A8.121,8.121,0,0,1,175.868,60H8.134A8.122,8.122,0,0,1,0,51.891V8.108A8.122,8.122,0,0,1,8.134,0H175.868A8.12,8.12,0,0,1,184,8.108Z" fill="#fff"/>
    <path id="Fill_35" data-name="Fill 35" d="M35.41,20.529a29.5,29.5,0,0,1-2.677,4.985c-1.739,2.64-4.189,5.927-7.225,5.955-2.7.025-3.391-1.752-7.053-1.731S14.029,31.5,11.33,31.475c-3.036-.028-5.358-3-7.1-5.636C-.629,18.458-1.137,9.8,1.861,5.191A10.764,10.764,0,0,1,10.514,0c3.218,0,5.242,1.76,7.9,1.76C21,1.763,22.571,0,26.292,0a10.51,10.51,0,0,1,7.916,4.168c-6.957,3.8-5.827,13.712,1.2,16.361" transform="translate(13 18.836)" fill="#1a1c20"/>
    <path id="Fill_36" data-name="Fill 36" d="M6.691,6.635A8.694,8.694,0,0,0,8.773,0,10.271,10.271,0,0,0,2.236,3.361,8.079,8.079,0,0,0,.1,9.833a8.681,8.681,0,0,0,6.591-3.2" transform="translate(30.705 9.984)" fill="#1a1c20"/>
    <path id="Fill_37" data-name="Fill 37" d="M3.24,20.657H0L7.075,0H10.6L17.7,20.655h-3.33L12.2,14.314H5.352L3.24,20.656ZM8.754,3.4h0C8.5,4.422,8.226,5.39,7.942,6.274l-1.88,5.513h5.427L9.582,6.31C9.242,5.249,8.984,4.283,8.754,3.4Z" transform="translate(56 23.754)" fill="#1a1c20"/>
    <path id="Fill_38" data-name="Fill 38" d="M3.128,20.656h-3V5.161C.131,3.179.1,1.808.016.576L0,.32H2.741l.119,2A5.6,5.6,0,0,1,7.625,0a5.668,5.668,0,0,1,4.4,2.06A8.169,8.169,0,0,1,13.771,7.4a8.383,8.383,0,0,1-2.005,5.85,6.134,6.134,0,0,1-4.541,1.959,5.234,5.234,0,0,1-4.1-1.786v7.23ZM6.879,2.518A3.809,3.809,0,0,0,3.266,5.472c-.009.064-.022.131-.034.2l-.01.052a4.6,4.6,0,0,0-.1.751V8.915a3.931,3.931,0,0,0,.106.985,3.649,3.649,0,0,0,3.531,2.822c2.456,0,3.982-1.994,3.982-5.2C10.746,5.03,9.55,2.518,6.879,2.518Z" transform="translate(75.672 29.656)" fill="#1a1c20"/>
    <path id="Fill_39" data-name="Fill 39" d="M3.128,20.656h-3V5.161C.131,3.19.1,1.819.015.576L0,.32H2.741l.119,2A5.6,5.6,0,0,1,7.625,0a5.667,5.667,0,0,1,4.4,2.06A8.169,8.169,0,0,1,13.771,7.4a8.393,8.393,0,0,1-2,5.85,6.141,6.141,0,0,1-4.543,1.959,5.233,5.233,0,0,1-4.1-1.786v7.23ZM6.879,2.518A3.805,3.805,0,0,0,3.267,5.472c-.013.081-.029.163-.044.245a4.6,4.6,0,0,0-.1.753V8.915a3.931,3.931,0,0,0,.106.985,3.646,3.646,0,0,0,3.531,2.822c2.455,0,3.981-1.994,3.981-5.2C10.745,5.03,9.55,2.518,6.879,2.518Z" transform="translate(91.41 29.656)" fill="#1a1c20"/>
    <path id="Fill_40" data-name="Fill 40" d="M7.484,9.22C4.55,8.073,3.61,7.171,3.61,5.505c0-1.4,1.1-2.818,3.573-2.818a7.1,7.1,0,0,1,3.69.935l.266.166.887-2.648-.175-.1A9.045,9.045,0,0,0,7.274,0C3.265,0,.465,2.389.465,5.808c0,2.758,1.753,4.685,5.518,6.066,2.668,1.007,3.661,2.038,3.661,3.805,0,2-1.532,3.242-4,3.242a8.545,8.545,0,0,1-4.531-1.3l-.272-.176L0,20.157l.155.1a10.691,10.691,0,0,0,5.313,1.379c5.4,0,7.319-3.325,7.319-6.173,0-2.936-1.536-4.746-5.3-6.247" transform="translate(111.082 23.754)" fill="#1a1c20"/>
    <path id="Fill_41" data-name="Fill 41" d="M5.177,0,2.188.954V3.526H0V6H2.188v7.582a5.863,5.863,0,0,0,1.055,3.929,3.874,3.874,0,0,0,2.948,1.176,7.064,7.064,0,0,0,2.355-.37l.171-.061-.146-2.48-.292.091a4.519,4.519,0,0,1-1.417.167c-1.181,0-1.685-.759-1.685-2.542V6H8.852V3.526H5.177Z" transform="translate(124.852 26.705)" fill="#1a1c20"/>
    <path id="Fill_42" data-name="Fill 42" d="M7.271,15.737H7.242C2.978,15.737,0,12.551,0,7.989,0,3.285,3.077,0,7.484,0a7.011,7.011,0,0,1,5.264,2.152,7.954,7.954,0,0,1,2.006,5.566C14.754,13.228,10.875,15.737,7.271,15.737ZM7.392,2.484C4.482,2.484,3.18,5.2,3.18,7.9c0,3.1,1.734,5.353,4.122,5.353h.031c2.423,0,4.182-2.29,4.182-5.444C11.515,5.244,10.224,2.484,7.392,2.484Z" transform="translate(133.705 29.656)" fill="#1a1c20"/>
    <path id="Fill_43" data-name="Fill 43" d="M7.869.14,7.679.094A3.188,3.188,0,0,0,6.893,0,4.53,4.53,0,0,0,2.93,2.426L2.837.317H0L.018.571C.1,1.763.137,3.1.137,4.91L.108,14.754H3.269V7.074a7.414,7.414,0,0,1,.087-1.168A3.43,3.43,0,0,1,6.682,2.869a8.484,8.484,0,0,1,.848.05l.338.033Z" transform="translate(150.426 29.656)" fill="#1a1c20"/>
    <path id="Fill_44" data-name="Fill 44" d="M7.1,15.737c-4.313,0-7.1-2.982-7.1-7.6C0,3.347,2.8,0,6.811,0c4.411,0,5.976,3.834,5.976,7.116A7.286,7.286,0,0,1,12.7,8.429l-.039.2L2.934,8.6c.185,4.117,3.217,4.562,4.512,4.562a8.992,8.992,0,0,0,3.775-.7l.251-.106L12.05,14.7l-.181.086A11.156,11.156,0,0,1,7.1,15.737ZM6.61,2.394c-2.237,0-3.338,1.968-3.622,3.811H9.859A4.558,4.558,0,0,0,8.822,3.275,2.9,2.9,0,0,0,6.61,2.394Z" transform="translate(158.295 29.656)" fill="#1a1c20"/>
    <path id="Fill_45" data-name="Fill 45" d="M2.536,9.836A21.363,21.363,0,0,1,0,9.721V.2A22.639,22.639,0,0,1,2.966,0,6.612,6.612,0,0,1,7.322,1.193,4.257,4.257,0,0,1,8.852,4.681,4.892,4.892,0,0,1,7.305,8.443,7.147,7.147,0,0,1,2.536,9.836ZM3.03.991A8.683,8.683,0,0,0,1.4,1.12V8.773a9.981,9.981,0,0,0,1.4.058H2.85A4.837,4.837,0,0,0,6.22,7.753,3.917,3.917,0,0,0,7.385,4.724a3.514,3.514,0,0,0-.936-2.606A4.652,4.652,0,0,0,3.03.991Z" transform="translate(56 9.984)" fill="#1a1c20"/>
    <path id="Fill_46" data-name="Fill 46" d="M3.877,6.885H3.86C1.587,6.885,0,5.492,0,3.5A3.233,3.233,0,0,1,1.167.922,4.413,4.413,0,0,1,3.992,0,4.185,4.185,0,0,1,6.8.937,3.136,3.136,0,0,1,7.869,3.375,3.211,3.211,0,0,1,6.59,6.048,4.521,4.521,0,0,1,3.877,6.885ZM3.943.9A2.378,2.378,0,0,0,1.48,3.456,2.392,2.392,0,0,0,3.892,5.987H3.91A2.429,2.429,0,0,0,6.356,3.415,2.367,2.367,0,0,0,3.943.9Z" transform="translate(66.82 12.934)" fill="#1a1c20"/>
    <path id="Fill_47" data-name="Fill 47" d="M1.385,0l1,3.486c.2.768.4,1.493.538,2.205H2.97c.169-.7.416-1.437.662-2.191L4.848,0H5.987L7.142,3.442c.277.811.492,1.551.661,2.248h.046a19.471,19.471,0,0,1,.569-2.234L9.48,0H10.82l-2.4,6.885H7.187L6.049,3.6a23.119,23.119,0,0,1-.663-2.276h-.03a19.38,19.38,0,0,1-.677,2.291l-1.2,3.272H2.247L0,0Z" transform="translate(74.689 12.934)" fill="#1a1c20"/>
    <path id="Fill_48" data-name="Fill 48" d="M.067,1.975C.067,1.266.05.71,0,.153H1.291l.082,1.1h.033A3.1,3.1,0,0,1,4.055,0a2.656,2.656,0,0,1,2.83,2.865v4.02H5.43V3c0-1.085-.481-2-1.854-2A2.077,2.077,0,0,0,1.623,2.253a1.552,1.552,0,0,0-.1.571V6.885H.067Z" transform="translate(87.475 12.934)" fill="#1a1c20"/>
    <path id="Fill_49" data-name="Fill 49" d="M0,9.836H.984V0H0Z" transform="translate(96.328 9.984)" fill="#1a1c20"/>
    <path id="Fill_50" data-name="Fill 50" d="M3.876,6.885H3.86C1.587,6.885,0,5.492,0,3.5A3.233,3.233,0,0,1,1.166.922,4.413,4.413,0,0,1,3.992,0,4.185,4.185,0,0,1,6.8.937,3.136,3.136,0,0,1,7.869,3.375,3.211,3.211,0,0,1,6.59,6.048,4.523,4.523,0,0,1,3.876,6.885ZM3.943.9A2.378,2.378,0,0,0,1.48,3.456,2.392,2.392,0,0,0,3.892,5.987h.016A2.429,2.429,0,0,0,6.355,3.415,2.367,2.367,0,0,0,3.943.9Z" transform="translate(99.279 12.934)" fill="#1a1c20"/>
    <path id="Fill_51" data-name="Fill 51" d="M2.263,6.885A2,2,0,0,1,0,4.993C0,3.414,1.557,2.544,4.383,2.544h.065V2.408c0-.7-.286-1.524-1.651-1.524h-.03a3.871,3.871,0,0,0-1.942.49L.519.571A5.272,5.272,0,0,1,2.966,0,2.8,2.8,0,0,1,5.235.852a2.811,2.811,0,0,1,.56,1.842V5.157A9.927,9.927,0,0,0,5.9,6.736H4.694l-.122-.83H4.526A2.852,2.852,0,0,1,2.263,6.885Zm2-3.512a5.556,5.556,0,0,0-1.985.287,1.258,1.258,0,0,0-.928,1.2A1.122,1.122,0,0,0,2.6,6,1.862,1.862,0,0,0,4.418,4.9a1.072,1.072,0,0,0,.062-.382V3.375Z" transform="translate(108.131 12.934)" fill="#1a1c20"/>
    <path id="Fill_52" data-name="Fill 52" d="M3.134,10.82C1.318,10.82,0,9.267,0,7.128A4.143,4.143,0,0,1,1.089,4.137a3.054,3.054,0,0,1,2.18-.911,2.429,2.429,0,0,1,2.2,1.1H5.5V0H6.825V8.779c0,.762.022,1.445.06,1.876H5.7l-.059-1.26H5.605A2.675,2.675,0,0,1,3.134,10.82Zm.392-6.558c-1.307,0-2.185,1.122-2.185,2.792,0,1.64.846,2.7,2.155,2.7A2,2,0,0,0,5.439,8.178a2.241,2.241,0,0,0,.06-.57V6.348a2.443,2.443,0,0,0-.06-.571A1.96,1.96,0,0,0,3.526,4.261Z" transform="translate(116 9)" fill="#1a1c20"/>
    <path id="Fill_53" data-name="Fill 53" d="M3.877,6.885H3.859C1.587,6.885,0,5.492,0,3.5A3.232,3.232,0,0,1,1.167.922,4.413,4.413,0,0,1,3.992,0,4.185,4.185,0,0,1,6.8.937,3.136,3.136,0,0,1,7.869,3.375,3.211,3.211,0,0,1,6.59,6.048,4.521,4.521,0,0,1,3.877,6.885ZM3.944.9A2.378,2.378,0,0,0,1.481,3.456,2.392,2.392,0,0,0,3.892,5.987H3.91A2.429,2.429,0,0,0,6.355,3.415,2.367,2.367,0,0,0,3.944.9Z" transform="translate(128.787 12.934)" fill="#1a1c20"/>
    <path id="Fill_54" data-name="Fill 54" d="M.067,1.975C.067,1.266.05.71,0,.153H1.291l.083,1.1h.033A3.1,3.1,0,0,1,4.055,0a2.656,2.656,0,0,1,2.83,2.865v4.02H5.429V3c0-1.085-.479-2-1.854-2A2.079,2.079,0,0,0,1.622,2.253a1.559,1.559,0,0,0-.1.571V6.885H.067Z" transform="translate(137.639 12.934)" fill="#1a1c20"/>
    <path id="Fill_55" data-name="Fill 55" d="M2.759,0V1.68H4.918v.971H2.759V6.433c0,.869.292,1.362,1.132,1.362a3.3,3.3,0,0,0,.874-.087l.068.971A4.785,4.785,0,0,1,3.5,8.852a2.374,2.374,0,0,1-1.629-.536,2.444,2.444,0,0,1-.582-1.841V2.651H0V1.68H1.285V.391Z" transform="translate(149.443 10.967)" fill="#1a1c20"/>
    <path id="Fill_56" data-name="Fill 56" d="M0,0H1.47V4.184H1.5a2.445,2.445,0,0,1,1.053-.859,3.32,3.32,0,0,1,1.5-.346A2.661,2.661,0,0,1,6.885,5.846v3.99H5.415V5.985a1.746,1.746,0,0,0-1.872-2A2.118,2.118,0,0,0,1.571,5.209a1.244,1.244,0,0,0-.1.582V9.836H0Z" transform="translate(155.344 9.984)" fill="#1a1c20"/>
    <path id="Fill_57" data-name="Fill 57" d="M3.839,6.885C1.507,6.885,0,5.582,0,3.565A3.465,3.465,0,0,1,3.677,0a3.05,3.05,0,0,1,2.56,1.1A3.373,3.373,0,0,1,6.885,3.1a2.588,2.588,0,0,1-.048.572L1.371,3.66C1.4,5.091,2.394,5.946,4.031,5.946A6.217,6.217,0,0,0,6.193,5.62l.258.843A7.36,7.36,0,0,1,3.839,6.885ZM3.564.857A2.134,2.134,0,0,0,1.387,2.8H5.515a2,2,0,0,0-.521-1.422A1.919,1.919,0,0,0,3.564.857Z" transform="translate(164.197 12.934)" fill="#1a1c20"/>
  </g>
</svg>
