<svg xmlns="http://www.w3.org/2000/svg" viewBox="0 0 195.99 171.38"><defs><style>.cls-1{fill:#fff;}</style></defs><g id="圖層_2" data-name="圖層 2"><g id="圖層_1-2" data-name="圖層 1"><path class="cls-1" d="M190,171.35H6a6,6,0,0,1-5.18-9l28.8-49.88a6,6,0,1,1,10.77,5.29,5,5,0,0,1-.41.71l-23.62,40.9h163.3l-30-52a6,6,0,0,1,10.36-6l35.18,61a6,6,0,0,1-5.18,9Z"/><path class="cls-1" d="M44.65,104.32a6,6,0,0,1-5.17-9L92.8,3A6,6,0,0,1,98,0h0a6,6,0,0,1,5.18,3l38,65.87a6,6,0,0,1-10.36,6L98,18,49.83,101.33A6,6,0,0,1,44.65,104.32Z"/><path class="cls-1" d="M182.58,30.47,163.64,37.4a1.83,1.83,0,0,0-1.1,2.34v0a1.91,1.91,0,0,0,.79,1l10.12,5.92,11.05,6.44a1.84,1.84,0,0,0,2.52-.64,1.81,1.81,0,0,0,.24-1.2L185.05,32a1.84,1.84,0,0,0-2-1.62A1.53,1.53,0,0,0,182.58,30.47Z"/><path class="cls-1" d="M52.8,148.54h0a6,6,0,0,1-5-2.67l-18-27.06a6,6,0,0,1,9.89-6.8,1,1,0,0,1,.11.17l13.06,19.59L86.39,81.39a6,6,0,0,1,8.32-1.68,5.85,5.85,0,0,1,1.68,1.68l23.38,35.07,48.71-73.13a6,6,0,0,1,10,6.63l-53.73,80.6a6,6,0,0,1-10,0L91.36,95.49,57.78,145.87A6,6,0,0,1,52.8,148.54Z"/></g></g></svg>