<svg id="Group_25" data-name="Group 25" xmlns="http://www.w3.org/2000/svg" width="56" height="56" viewBox="0 0 56 56">
  <g id="Slice_25" data-name="Slice 25">
    <circle id="Oval" cx="28" cy="28" r="28" fill="#f2e205"/>
    <g id="Group" transform="translate(15 15)">
      <path id="Path" d="M0,2.1A2.051,2.051,0,0,1,2.1,0h21a2.051,2.051,0,0,1,2.1,2.1v7a2.112,2.112,0,0,1-2.1,2.1V2.1H2.1v9.1A2.112,2.112,0,0,1,0,9.1Z" transform="translate(0.4 0.4)" fill="#fff" opacity="0.6"/>
      <path id="Shape" d="M15.8,21H1a.947.947,0,0,1-1-1V0H16.8V20A.947.947,0,0,1,15.8,21ZM5.847,12.4c-.122,0-.185.116-.248.3a2.933,2.933,0,0,0-.2.9c-.1.4-.107.5.3.7a4.224,4.224,0,0,0,1.5.4c.4.1.4.1.4.5v.6a.368.368,0,0,0,.4.4h.8a.367.367,0,0,0,.4-.4V15c0-.288.086-.4.4-.5a2.889,2.889,0,0,0,2-3.5,3.158,3.158,0,0,0-1.5-1.7,10.108,10.108,0,0,0-1.494-.7L8.6,8.6a2.2,2.2,0,0,1-.8-.5.741.741,0,0,1-.317-.656A.856.856,0,0,1,8,6.8a.894.894,0,0,1,.5-.1,4.062,4.062,0,0,1,1.9.4.892.892,0,0,0,.259.06c.114,0,.177-.068.241-.26l.3-1a.336.336,0,0,0,.023-.261A.426.426,0,0,0,11,5.4,5.656,5.656,0,0,0,9.8,5c-.5-.1-.5-.1-.5-.6,0-.8,0-.8-.8-.8H8.2c-.4,0-.4.1-.4.4v.5c0,.5,0,.5-.5.7A2.7,2.7,0,0,0,5.4,7.7a2.429,2.429,0,0,0,1.4,2.4,8.1,8.1,0,0,0,.968.468c.238.1.485.209.731.332a2.074,2.074,0,0,1,.6.4,1.076,1.076,0,0,1,.329.989.716.716,0,0,1-.529.51,2.144,2.144,0,0,1-1.1.2,4.822,4.822,0,0,1-1.7-.5A.492.492,0,0,0,5.847,12.4Z" transform="translate(4.6 4.6)" fill="#fff"/>
    </g>
    <g id="Group-2" data-name="Group" transform="translate(40 2)">
      <circle id="Oval-2" data-name="Oval" cx="8" cy="8" r="8" fill="#ffffbc"/>
      <path id="Path-2" data-name="Path" d="M3.35,4.05,7.25.15a.483.483,0,0,1,.7,0l.7.7a.483.483,0,0,1,0,.7l-4.2,4.2a.1.1,0,0,1-.1.1l-.7.7a.483.483,0,0,1-.7,0h0L.15,3.75a.483.483,0,0,1,0-.7l.7-.7a.483.483,0,0,1,.7,0l1.8,1.7Z" transform="translate(3.55 4.65)" fill="#fff"/>
    </g>
  </g>
</svg>
