<svg id="Group_35" data-name="Group 35" xmlns="http://www.w3.org/2000/svg" xmlns:xlink="http://www.w3.org/1999/xlink" width="996" height="498" viewBox="0 0 996 498">
  <defs>
    <clipPath id="clip-path">
      <rect id="Mask" width="996" height="498" fill="none"/>
    </clipPath>
    <linearGradient id="linear-gradient" x1="0.722" y1="1.152" x2="0.564" y2="0.528" gradientUnits="objectBoundingBox">
      <stop offset="0" stop-color="#f2e205"/>
      <stop offset="1" stop-color="#f7b500"/>
    </linearGradient>
    <linearGradient id="linear-gradient-2" x1="0" y1="0.5" x2="1" y2="0.5" xlink:href="#linear-gradient"/>
    <linearGradient id="linear-gradient-3" x1="1.393" y1="1.13" x2="-0.104" y2="-0.468" xlink:href="#linear-gradient"/>
    <linearGradient id="linear-gradient-4" x1="0.248" y1="-31.815" x2="0.752" y2="32.809" xlink:href="#linear-gradient"/>
    <linearGradient id="linear-gradient-6" x1="0.244" y1="-8.75" x2="0.757" y2="9.743" xlink:href="#linear-gradient"/>
  </defs>
  <g id="Slice_35" data-name="Slice 35">
    <g id="Path_Path_Mask" data-name="Path + Path Mask">
      <rect id="Mask-2" data-name="Mask" width="996" height="498" fill="none"/>
      <g id="Path_Path_Mask-2" data-name="Path + Path Mask" clip-path="url(#clip-path)">
        <path id="Path" d="M1070.265,107.238,764.008,413.972a128.8,128.8,0,0,1-182.386,0L316.132,139H0V.524L316.132,0,649.856,345.636a32.524,32.524,0,0,0,45.937,0L1002.02,38.921Z" transform="translate(-110)" fill="url(#linear-gradient)"/>
        <path id="Path-2" data-name="Path" d="M1089.227.02V209.674h-74V137.009L747.857,404.852a128.815,128.815,0,0,1-182.386,0L316.132,147.523H0V8.774H316.132L633.676,336.516a32.524,32.524,0,0,0,45.937,0L941.629,74.107H879.906V0Z" transform="translate(-110 9.12)" fill="url(#linear-gradient-2)"/>
      </g>
    </g>
    <path id="Path-3" data-name="Path" d="M68.984,25.285c1.717.445,10.853.109,11,7.559s-7.558,10.088-13.053,9.189S54.264,40.057,53.12,39.968s-19.732-5.01-20.976-5.929S17.039,22.983,15.312,21.056,0,5.355,0,5.355L4.242,0s27.112,18.576,29.1,20.177,6.354,3.715,8.88,3.646S66.419,24.623,68.984,25.285Z" transform="translate(670.041 354.538)" fill="#c9ccdb"/>
    <path id="Path-4" data-name="Path" d="M6.048,0s8.445,16.63,17.138,22.588c2.279,1.561,33.93,2.806,33.93,2.806s8.031.484,7.291,7.658S55.448,39.2,55.448,39.2s-25.721-4.16-36-7.075C10.882,29.692,0,5.247,0,5.247Z" transform="translate(763.878 278.505)" fill="#5f79ba"/>
    <path id="Path-5" data-name="Path" d="M209.331,209.654H135.364V74.077H0V0H209.331V209.654Z" transform="translate(786.087 9.15)" fill="url(#linear-gradient-3)"/>
    <path id="Path-6" data-name="Path" d="M8.46,8.972s.691,8.389.464,9.762S1.642,23.033.438,25s.375,4.634,1.105,4.674,12.826.583,13.694-.4S24.226,9.1,23.762,6.166,20.8.04,12.653,0,8.46,8.972,8.46,8.972Z" transform="translate(719.683 467.28)" fill="#222f3a"/>
    <path id="Path-7" data-name="Path" d="M28.44,17.625s-5.92,5.563-8.13,8.33S1.653,45.479.311,49.036s1.973,14.93,3.946,15.908,9.294.346,11.455.316S57.15,59.589,57.15,59.589l2.437-14.476s-6.561-1.62-12.431-.405-8.88,0-8.88,0,14.918-6.521,22.968-11.58,9.215-10.177,6.906-15.987S61.62,2.319,57.15.165,28.44,17.625,28.44,17.625Z" transform="translate(670.164 423.036)" fill="#2d3f57"/>
    <path id="Path-8" data-name="Path" d="M8.46,9.851s.691,8.389.464,9.762-7.281,4.3-8.485,6.265.375,4.634,1.105,4.674,12.826.583,13.694-.4S25.42,9.772,24.956,6.848,21.009.04,12.909,0,8.46,9.851,8.46,9.851Z" transform="translate(730.033 466.322)" fill="#2e4354"/>
    <path id="Path-9" data-name="Path" d="M0,10.612s5.18.366,5.565.287C5.565,10.9,7.932.84,7.8.316L1.934,0Z" transform="translate(733.461 465.185)" fill="#405876"/>
    <path id="Path-10" data-name="Path" d="M32.04,14.653s-6.482,4.881-8.988,7.391S2.392,39.4.656,42.794.981,57.843,2.8,59.029,12,60.392,14.152,60.6s55.616-2.964,55.616-2.964L73.4,41.49s-13.369-.761-19.338-.2-15.283,1.373-15.283,1.373,15.786-4.19,24.291-8.34,11.839-11.571,10.172-17.6S66.147,3.883,62.388.444,32.04,14.653,32.04,14.653Z" transform="translate(666.909 423.172)" fill="#3a5271"/>
    <path id="Path-11" data-name="Path" d="M21.551,1.205s-5.387,3.7-7.893,5.1S1.345,8.725.437,9.713s-.365,3.952,1.292,4.12,13.734.484,17.67-.721,11.543-.128,13.161-.8,0-9.555-.809-11.531S21.551,1.205,21.551,1.205Z" transform="translate(905.879 445.206)" fill="#2e3048"/>
    <path id="Path-12" data-name="Path" d="M0,.543.7,4.17s7.6.9,9.8-.405L9.689,0Z" transform="translate(926.729 442.242)" fill="#404369"/>
    <path id="Path-13" data-name="Path" d="M0,18.262S7.173,58.626,14.8,69.643c4.3,6.225,32.785,52.547,32.785,52.547l12.037-1.433S46.529,84.89,41.073,76.955C34.986,68.062,25.435,56.512,24.409,46.67c-.631-6.176-4.45-25.364-4.45-25.364s9.264-6.3-.4-20.345C17.138-2.557,0,4.716,0,4.716.73,7.166.355,11.286,0,18.262Z" transform="translate(879.145 323.006)" fill="#2e3048"/>
    <path id="Path-14" data-name="Path" d="M21.562,1.205s-5.4,3.7-7.893,5.1S1.356,8.725.439,9.713s-.355,3.952,1.3,4.12,13.734.484,17.68-.721,11.534-.128,13.161-.8,0-9.555-.829-11.531S21.562,1.205,21.562,1.205Z" transform="translate(925.501 445.206)" fill="#2e3048"/>
    <path id="Path-15" data-name="Path" d="M0,.543.71,4.17s7.6.9,9.8-.405L9.689,0Z" transform="translate(946.353 442.242)" fill="#404369"/>
    <path id="Path-16" data-name="Path" d="M0,21.773c.73,2.431,2.595,7.638,4.608,13.1.454,1.205.908,2.431,1.362,3.646,2.723,7.332,5.318,14.1,5.318,14.1,3.946,9.021,13.191,28.269,17.67,31.619C35,88.805,61.733,136.787,61.733,136.787l12.047-1.433s-13.1-35.868-18.548-43.8c-6.087-8.893-15.648-20.444-16.664-30.285-.631-6.176-4.45-25.364-4.45-25.364S29.648,14.392,19.969.331C17.552-3.137,0,21.773,0,21.773Z" transform="translate(884.621 308.399)" fill="#2e3048"/>
    <path id="Path-17" data-name="Path" d="M3.779,5.4S0,16.422,0,22.706,5.821,47.883,6.235,51.361c1.105,9.407,4.183,34.277,4.183,34.277l27.221-6.6a217.7,217.7,0,0,0,.839-21.9c-.168-11.956-3.759-22.825-6.334-29.208C24.36,8.656,10.794,1.008,11.987,0Z" transform="translate(868.726 255.62)" fill="#c8bcb4"/>
    <path id="Path-18" data-name="Path" d="M3.467,7.084s-3.118,5.8-1.569,6.7c1.283.751-1.5,6.442-1.865,7.371s2.319,1.6,2.891,2.2,2.249,7.954,4.46,8.181S19.539,28.3,22.253,25.473,27.186,9.92,25.38,4.545,8.983-3.044,3.467,7.084Z" transform="translate(853.123 226.719)" fill="#dba585"/>
    <path id="Path-19" data-name="Path" d="M0,21.393s.3.662.691,1.571c.168.385.365.83.553,1.3s.316.751.483,1.156a36.885,36.885,0,0,1,2.319,7.085c.306,2.836,8.238-12.045,8.238-12.045a137.792,137.792,0,0,1-6.334-18.4C3.335-7.894,0,21.393,0,21.393Z" transform="translate(867.108 235.215)" fill="#dba585"/>
    <path id="Path-20" data-name="Path" d="M.862,12.3a8.9,8.9,0,0,1,2.6-10.869c5.791-4.644,16.477,3.508,17.68,3.824s7.834.721,4.578,12.786C22.765,28.906,22.3,28.076,22.3,28.076S20.14,22.809,18.887,21.9c-1.973-1.423-6.235-1.087-6.235-1.087s2.032-5.425-1.154-6.2S4.1,11.1.862,12.3Z" transform="translate(855.107 222.762)" fill="#c38855"/>
    <path id="Path-21" data-name="Path" d="M.8,2.651C1.074,1.91,1.991-1.3,4.744.586s-1.707,7.9-2.19,7.994S-1.58,8.925.8,2.651Z" transform="translate(870.366 237.772)" fill="#dba585"/>
    <path id="Path-22" data-name="Path" d="M8.663,0S3.276,8.191,0,11.63l.987,5.682,9.5-16.037Z" transform="translate(870.167 254.336)" fill="#e6d8d1"/>
    <path id="Path-23" data-name="Path" d="M0,4.041S.3,4.7.691,5.612c.168.385.365.83.553,1.3C6.561,2.964,7.814.109,7.853,0A51.453,51.453,0,0,1,0,4.041Z" transform="translate(867.108 252.567)" fill="#997761"/>
    <path id="Path-24" data-name="Path" d="M.753,0s-.987,3.725-.7,5.178c.1.534,1.608-.148,1.608-.148Z" transform="translate(869.473 266.321)" fill="#e39f4e"/>
    <path id="Path-25" data-name="Path" d="M.007,8.047A5.546,5.546,0,0,0,.885,9.628s.858.7,1.431,1.235a4.137,4.137,0,0,1,.424.435,10.437,10.437,0,0,0,2.289,2.4c1.214.84,5.791,3.369,5.791,3.369l2.841-3.528,3.216-2.253s-3.6-8.2-4.637-9.11c-.109-.089-.207-.178-.306-.247A13.8,13.8,0,0,0,9.429.834C9.232.725,7.18-.233,6.568.053A2.213,2.213,0,0,0,5.2,1.723,5.351,5.351,0,0,0,3.085,3.7,3.29,3.29,0,0,0,1.358,6.041S-.112,7.019.007,8.047Z" transform="translate(804.244 224.116)" fill="#dca787"/>
    <path id="Path-26" data-name="Path" d="M.592,13.231S.148,9.634,0,8.468L35.429,0l1.253,3.587A266.168,266.168,0,0,1,.592,13.231Z" transform="translate(878.553 328.038)" fill="#1e1f2d"/>
    <path id="Path-27" data-name="Path" d="M.752,27.242Q1.9,30.384,2.883,33.575h0c1.47,4.674,2.713,9.407,3.759,14.011q.562,2.46,1.046,4.881a94.5,94.5,0,0,0,14.138,33.18s15.342-1.225,18.9-3.775A274.247,274.247,0,0,0,34.81,38.6c-.375-1.63-.77-3.271-1.2-4.881h0C29.1,16.61,21.826,1.225,10.184,0,9.986.257-3.244,16.264.752,27.242Z" transform="translate(870.49 255.62)" fill="#363957"/>
    <path id="Path-28" data-name="Path" d="M.017,1.482S2.05,15.266,13.9,16.2c10.606.84,26.007,6.176,31,10.266l6.176,5.4L49.595,24.7s-4.46-11.324-35.518-9.881c0,0-9.541,1.779-12.648-14.821C1.379-.019-.18.8.017,1.482Z" transform="translate(869.488 269.888)" fill="#e39f4e"/>
    <path id="Path-29" data-name="Path" d="M72.714,27.926s-24.8-4.516-35.084-8.784C34.413,17.8,10,.507,8.761.023S0,7.028,0,7.028,29.717,29.1,31.572,30.357,71.323,42.105,75.161,41.671s3.384-2.273,3.483-6.413C78.732,29.448,72.714,27.926,72.714,27.926Z" transform="translate(813.998 234.067)" fill="#363957"/>
    <path id="Path-30" data-name="Path" d="M3.591,0s7.025,15.5,21.814,33.694C29.983,39.326,0,44.316,0,44.316Z" transform="translate(902.084 295.747)" fill="#363957"/>
    <path id="Path-31" data-name="Path" d="M3.029,7.855S3.167,6.265,0,4.3L4.331,0A27.018,27.018,0,0,1,9.264,3.784C11.622,6.166,3.029,7.855,3.029,7.855Z" transform="translate(900.11 447.755)" fill="#dba686"/>
    <path id="Path-32" data-name="Path" d="M.71,6.778S1.164,2.826,0,.9L5.269,0S8.13,4.377,7.883,6.917.71,6.778.71,6.778Z" transform="translate(801.912 447.439)" fill="#dba686"/>
    <path id="Path-33" data-name="Path" d="M0,20.94c0,1.482-.1,2.3,4.43,2.352s8.88-5.336,11.938-9.15S23.383,8.529,20.9,5.95l-.987-.988C17.542,2.67,14.73.427,14.365.022s-4.489,4.94-4.489,4.94A10.222,10.222,0,0,1,9.491,9.34c-.73,1.611-1.884,7.46-4.035,8.428h0C3.335,18.806,0,20.653,0,20.94Z" transform="translate(893.184 449.917)" fill="#dba686"/>
    <path id="Path-34" data-name="Path" d="M6.077,13.93c2.96-.059,11.553-.5,16.3,0s6.581-.227,6.255-3.636a1.578,1.578,0,0,0-.069-.563C28.138,6.391,26.806,2.2,26.717.838S20.61.186,20.61.186,17.462,4.839,15.736,5.8,8.76,8.683,6.748,9.572c-.148.069-.306.128-.474.188h0c-2.131.721-5.722.82-6.226,1.976S3.058,13.979,6.077,13.93Z" transform="translate(782.96 452.728)" fill="#dba686"/>
    <path id="Path-35" data-name="Path" d="M6.077,4.613c2.96-.059,11.553-.5,16.3,0s6.581-.227,6.255-3.636a1.578,1.578,0,0,0-.069-.563C27.417-.376,19.189.1,14.325.73A21.171,21.171,0,0,1,6.274.414h0C4.143,1.135.552,1.234.048,2.39S3.058,4.663,6.077,4.613Z" transform="translate(782.96 462.044)" fill="#4a5c82"/>
    <path id="Path-36" data-name="Path" d="M0,15.928c0,1.482,0,2.352,4.568,2.4s8.88-5.336,11.938-9.15S23.521,3.567,21.035.988L20.048,0c-.138.109-6,5.029-7.893,8.468C9.047,14.189,5.722,12.776,5.574,12.8h0C3.473,13.794,0,15.592,0,15.928Z" transform="translate(893.046 454.929)" fill="#4a5c82"/>
    <path id="Path-37" data-name="Path" d="M2.329,42.176c4.716,7.7,18.637,44.464,18.637,44.464l11.948-.83S25.327,60.12,21.5,50.595C18.667,43.56,14.592,40,18.618,38.175c3.414-1.541,23.955-8.992,32.687-13.349a26.992,26.992,0,0,0,2.7-1.5,8.308,8.308,0,0,0,.74-.524c4.045-3.448-3.946-29-18.035-21.392,0,0-30.8,23-33.2,26.995S-2.378,34.469,2.329,42.176Z" transform="translate(780.798 366.134)" fill="#4a5c82"/>
    <path id="Path-38" data-name="Path" d="M0,10.563S19.436,39.87,37.413,55.946c5.081,4.555,9.225,8.32,16.506,14.179,3.868,3.113,10.695,9.6,16.23,15l.227.217c3.946,3.854,7.212,7.114,8.219,8.122l.1.1.109.109,3.6,3.952,5.505-5.029a148.226,148.226,0,0,1-9.55-14C73.533,70.076,66.39,60.551,62.571,57.745c-6.443-4.8-12.826-7.737-15.076-12.154S37.422,23.418,37.422,23.418,36.091,5.168,25.08.781C14.75-3.4,0,10.563,0,10.563Z" transform="translate(818.162 356.198)" fill="#4a5c82"/>
    <path id="Path-39" data-name="Path" d="M2.263,17.055A33.446,33.446,0,0,0,1.938,13.1c-.069-.484-.148-.988-.247-1.482s-.217-1.067-.355-1.591A10.278,10.278,0,0,0,.872,8.646a7.969,7.969,0,0,0-.72-1.452C-1.5,4.644,10.807,0,10.807,0S9.988,8.507,12.05,11.225,2.263,17.055,2.263,17.055Z" transform="translate(808.825 283.02)" fill="#dba686"/>
    <path id="Path-40" data-name="Path" d="M6.894.931s-3.522,1.976-3.71,9.8c0,0-1.865,5.859-2.96,6.709S2.395,19.418,2.592,20.2s.168,4.486,2.1,7.085,14.849-1.452,16.151-4.94S33.335,4.962,20.706,1.682,6.894.931,6.894.931Z" transform="translate(797.702 264.323)" fill="#dba585"/>
    <path id="Path-41" data-name="Path" d="M50.606,64.394s-16.891,9.713-32.637,8.843c0,0-.079-.405-.257-1.186-.72-3.31-2.881-12.509-5.722-17.954a26.9,26.9,0,0,0-1.618-2.549c-2.23-3.34-4.1-6.205-5.6-8.755-.562-.988-1.075-1.838-1.529-2.7C.535,35.028-.481,31.2.21,27.183a19.2,19.2,0,0,1,1.056-3.666c.227-.573.483-1.166.77-1.759C6.189,13.023,10.263,9.12,11.507,5.533L21.373,0a22.981,22.981,0,0,1,7.183,8.023c3.256,5.691,6.551,12.845,6.729,25.631a34.829,34.829,0,0,0,1.588,10.81S40.572,53.061,50.606,64.394Z" transform="translate(799.542 294.284)" fill="#6783ca"/>
    <path id="Path-42" data-name="Path" d="M0,11.357S1.707-4.551,16.269,1.288s5.219,20.434,2.062,25.582c0,0,.089-7.678-7.133-9.436S2.812,13.728,0,11.357Z" transform="translate(801.153 260.893)" fill="#474442"/>
    <path id="Path-43" data-name="Path" d="M1.49.546c1.223-1.4,4.173.079,3.335,2.411S1,7.205.4,5.921A4.787,4.787,0,0,1,1.49.546Z" transform="translate(812.488 275.874)" fill="#dba686"/>
    <path id="Path-44" data-name="Path" d="M1.325,1.017S6.584-2.323,8.745,3.1,2.707,13.833.733,9.3A9.043,9.043,0,0,1,1.325,1.017Z" transform="translate(820.576 267.359)" fill="#474442"/>
    <path id="Path-45" data-name="Path" d="M7.271,0A22.954,22.954,0,0,1,.819,6.205C.72,5.672.6,5.138.464,4.614A10.278,10.278,0,0,0,0,3.231H0A32.781,32.781,0,0,0,7.271,0Z" transform="translate(809.697 288.474)" fill="#997761"/>
    <path id="Path-46" data-name="Path" d="M.385,1.671A7.559,7.559,0,0,1,7.291.317c4.242,1.136,7.656,8.992,3.749,17.944S7.094,38.942,13.467,50.374c0,0-13.112-12.618-11.129-25.285S0,11.176,0,11.176Z" transform="translate(824.042 265.767)" fill="#474442"/>
    <path id="Path-47" data-name="Path" d="M4.568,18.635s-3.65-3.261-4.006-4.2A4.818,4.818,0,0,1,0,12.252C.128,11.936,3.1,9.17,3.779,8.3S12.126-.445,12.155.02s.237,3.6-4.548,10.009c-2.96,4.041,1.746,5.988,1.144,7.47S4.568,18.635,4.568,18.635Z" transform="translate(757.051 281.439)" fill="#dba585"/>
    <path id="Path-48" data-name="Path" d="M9,11.788S.622,1.255,0,0C.326.8,4.568,11.047,6.295,13.29a26.992,26.992,0,0,0,2.7-1.5Z" transform="translate(825.808 377.65)" fill="#3a4965"/>
    <path id="Path-49" data-name="Path" d="M6.877,0S15.49,11.857,25.622,14.93c2.644.81,33.2-7.49,33.2-7.49s7.814-1.976,9.245,5.128-6.709,8.537-6.709,8.537-25.78,3.745-36.5,4.051C15.973,25.4,0,2.52,0,2.52Z" transform="translate(757.801 294.284)" fill="#6783ca"/>
    <path id="Path-50" data-name="Path" d="M11.987,2.856,9.876,0,.217,5.444,0,10.247,11.987,2.856Z" transform="translate(810.151 292.348)" fill="#6783ca"/>
    <path id="Path-51" data-name="Path" d="M17.66,0,0,5.83H0A19.2,19.2,0,0,1,1.056,2.164Z" transform="translate(799.761 315.637)" fill="#4d6295"/>
    <path id="Path-52" data-name="Path" d="M17.3,13.519A11.5,11.5,0,0,1,15,10.693c-.395-.988-2.5-7.608-3.946-7.9S.924-.957.352.258a1.176,1.176,0,0,0,.8,1.848c.641.2,6.571,3.162,6.906,3.7,0,0-6.443-2.124-7.508-.81S.283,7.472.362,8.351s-.345,2.579.868,3.7,9.215,3.893,10.586,4.822,4.114,3.745,4.45,3.666S17.3,13.519,17.3,13.519Z" transform="translate(652.709 353.974)" fill="#dba585"/>
    <path id="Path-53" data-name="Path" d="M25.909,2.332s-9.8,6.492-12.579,11.284-1.973,15.9-1.6,18.428-2.6,15.157-4.657,16.8S0,54.207,0,54.207,11.583,82.862,22.09,80.648c0,0,18.479-25.147,20.354-33.6.908-4.071,5.505-17.44,4.785-23.141A63.487,63.487,0,0,0,38.764,0Z" transform="translate(716.935 373.213)" fill="#6783ca"/>
    <path id="Path-54" data-name="Path" d="M8.206,3.564s-4.992,4.565-3.8,5.929C5.394,10.649.777,15.233.116,16.014s1.707,2.342,2.052,3.113-.493,8.5,1.569,9.456,12.885.988,16.467-.84,10.044-13.428,10.1-19.258S16.948-4.4,8.206,3.564Z" transform="translate(732.398 340.728)" fill="#dba585"/>
    <path id="Path-55" data-name="Path" d="M0,8.708S.987,2.957,8.159.408,20.985,8.066,22.071,8.777s7.765,5.049-.059,15.266-7.715,6.63-7.715,6.63,1.894-5.276,0-6.512C12.195,22.838,8.6,21,8.6,21s3.818-4.575.987-6.4S3.532,8.639,0,8.708Z" transform="translate(739.568 336.513)" fill="#263643"/>
    <path id="Path-56" data-name="Path" d="M16.075,0S14.26,5.84,15.72,8.893,3.348,11.254,3.348,11.254s0-4.614-3.019-6.413S16.075,0,16.075,0Z" transform="translate(739.653 364.33)" fill="#dba585"/>
    <path id="Path-57" data-name="Path" d="M0,4.417.681,2.964,12.047,0l1.608,3.616S3.384,5.276,0,4.417Z" transform="translate(743.001 371.158)" fill="#daddee"/>
    <path id="Path-58" data-name="Path" d="M19.634,26.993c-7.893,8.132-19.2,1.739-19.2,1.739C.187,26.291.049,24.088,0,22.1V18.93c.316-13.557,5.278-14.7,5.278-14.7s7.054-7.579,13.438-2.441S27.507,18.861,19.634,26.993Z" transform="translate(728.182 378.274)" fill="#daddee"/>
    <path id="Path-59" data-name="Path" d="M2.17,1.426C2.692.8,3.995-1.4,6.027,1.347S2.357,7.858,1.864,7.77-2.25,6.7,2.17,1.426Z" transform="translate(749.948 355.227)" fill="#dba585"/>
    <path id="Path-60" data-name="Path" d="M71.411,13.6c1.766.138,10.695-1.808,12.145,5.5S77.884,30.364,72.319,30.433s-12.826.306-14,.4S38,29.356,36.613,28.675s-16.773-8.241-18.854-9.881S0,6.017,0,6.017L3.246,0S33.18,13.547,35.41,14.821s6.906,2.53,9.383,2.026S68.748,13.428,71.411,13.6Z" transform="translate(666.094 366.524)" fill="#daddee"/>
    <path id="Path-61" data-name="Path" d="M14.02,0A41.391,41.391,0,0,1,0,4.022V.85C.444.879,10.951,1.008,14.02,0Z" transform="translate(728.182 396.355)" fill="#a1a2b0"/>
    <path id="Rectangle" d="M0,.247,330.441,0l0,2.577L0,2.824Z" transform="translate(552.369 334.7) rotate(-45.01)" fill="url(#linear-gradient-4)"/>
    <path id="Path-62" data-name="Path" d="M116.046,116.22l-1.362,1.344L0,2.707V0L116.046,116.22Z" transform="translate(206.123 175.189)" fill="url(#linear-gradient-2)"/>
    <rect id="Rectangle-2" data-name="Rectangle" width="2.575" height="159.449" transform="translate(958.775 34.791)" fill="#fff"/>
    <path id="Rectangle-3" data-name="Rectangle" d="M0,.069,92.725,0l0,2.577L0,2.646Z" transform="translate(689.263 183.567) rotate(-45)" fill="url(#linear-gradient-6)"/>
  </g>
</svg>
